<svg xmlns="http://www.w3.org/2000/svg" viewBox="0 0 512 512" width="512" height="512" role="img" aria-label="OpenStudy">
<title>OpenStudy</title>
<path d="M280.15,395.06 C308.86,390.15 334.28,376.84 355.56,355.56 C376.10,335.02 388.66,311.84 394.61,283.50 C397.29,270.75 397.29,241.25 394.61,228.50 C388.65,200.13 376.08,176.93 355.56,156.47 C334.73,135.69 310.71,122.69 283.45,117.45 C274.56,115.74 271.24,116.06 259.50,119.73 C231.04,128.63 203.95,147.92 182.85,174.29 C164.14,197.68 155.64,217.36 151.57,246.75 L150.98,251.00L162.92,251.00 C176.44,251.00 175.35,251.76 176.52,241.51 C180.36,207.86 206.24,172.35 240.29,153.99 L248.07,149.79L256.79,152.49 C278.94,159.38 299.02,172.52 312.44,188.92 C326.35,205.93 333.97,223.65 337.53,247.25 L338.09,251.00L349.58,251.00 L361.07,251.00L360.43,245.75 C358.65,231.06 353.86,214.63 347.96,202.93 C339.81,186.77 325.68,169.84 311.50,159.23 C304.02,153.63 290.07,146.05 283.50,144.00 C277.95,142.28 276.88,140.96 281.59,141.64 C324.22,147.85 362.74,190.06 369.97,238.50 C370.98,245.27 371.20,245.67 376.75,250.78 L382.50,256.06L376.75,261.28 C371.11,266.41 370.99,266.63 369.89,274.00 C366.35,297.84 355.45,319.68 335.73,342.50 C317.33,363.78 292.15,382.63 268.63,392.75 C264.16,394.68 260.31,396.42 260.08,396.63 C258.94,397.65 270.08,396.78 280.15,395.06 Z M255.03,389.43 C282.29,379.63 309.91,360.29 328.47,338.00 C347.42,315.25 357.13,293.46 360.43,266.25 L361.07,261.00L349.59,261.00 L338.11,261.00L337.80,256.25 L337.50,251.50L302.50,251.50 C264.27,251.50 264.85,251.42 258.73,257.54 L256.00,260.27L253.27,257.54 C247.15,251.43 247.68,251.50 210.00,251.50 L175.50,251.50L175.50,256.00 L175.50,260.50L211.00,261.03 C230.53,261.32 246.62,261.66 246.77,261.78 C246.92,261.90 249.08,263.87 251.56,266.16 L256.08,270.33L259.79,266.78 C261.83,264.83 264.48,262.73 265.68,262.12 C267.17,261.36 279.07,261.00 303.00,261.00 L338.12,261.00L337.47,265.75 C332.37,303.14 310.08,333.92 274.72,352.41 C269.90,354.94 264.89,357.00 263.60,357.00 C259.90,357.00 246.42,352.29 236.54,347.54 C212.60,336.03 193.25,316.61 183.47,294.27 C180.42,287.31 177.15,275.19 175.50,264.75 L174.91,261.00L163.00,261.00 L151.09,261.00L151.66,266.25 C155.50,302.25 175.07,333.77 206.91,355.27 C213.26,359.56 218.03,362.03 235.00,369.83 C237.08,370.78 236.48,370.87 231.50,370.36 C212.71,368.43 191.23,356.43 173.67,338.05 C156.83,320.43 145.59,297.49 142.03,273.50 C141.02,266.72 140.81,266.33 135.25,261.25 L129.50,256.00L135.31,250.75 C141.00,245.61 141.15,245.35 142.08,238.50 C145.92,210.32 161.98,181.87 189.50,154.50 C205.68,138.40 221.98,126.89 240.00,118.83 C249.95,114.38 248.62,114.07 231.85,116.94 C202.80,121.92 177.94,134.94 156.44,156.44 C135.77,177.11 123.51,199.84 117.32,229.00 C114.77,241.02 114.76,271.06 117.31,282.87 C123.66,312.36 135.88,335.04 156.43,355.53 C176.64,375.68 200.89,388.90 227.50,394.28 C235.25,395.85 239.01,395.19 255.03,389.43 Z" fill="#f3ebd8" fill-rule="evenodd"/>
<circle cx="144" cy="256" r="4" fill="#c6a572"/>
<circle cx="367" cy="255" r="4" fill="#c6a572"/>
</svg>